<svg width="406" height="384" viewBox="0 0 406 384" fill="none" xmlns="http://www.w3.org/2000/svg">
<path d="M356.578 109.771C356.296 109.242 356.191 108.714 355.909 108.185C353.412 108.185 350.879 108.185 348.241 108.185C228.045 108.185 121.216 165.379 53.8543 253.936C55.2965 256.297 56.7739 258.517 58.3568 260.772C31.799 297.104 11.7487 338.44 0 383.018C0.140703 382.772 0.246233 382.49 0.386937 382.243C15.8291 341.436 38.412 304.187 66.5527 271.802C128.216 200.83 216.965 153.609 316.829 145.856L311.799 192.408C221.608 193.712 139.437 228.07 77.2462 283.96C107.884 315.323 150.799 334.74 198.216 334.74C275.603 334.74 340.854 282.938 360.658 212.212V212.071L360.799 211.296H360.94C361.08 210.521 361.327 209.71 361.467 209.076L361.854 207.631C361.995 206.856 362.241 206.186 362.382 205.411L362.769 203.825C362.909 203.156 363.05 202.521 363.156 201.852C363.296 201.182 363.402 200.548 363.543 199.879L363.789 198.575C363.93 197.799 364.07 196.883 364.176 196.073L364.317 195.403C365.899 186.347 366.708 176.902 366.708 167.317C366.708 159.846 366.181 152.481 365.266 145.293C363.719 132.994 360.658 121.083 356.578 109.771Z" fill="#373839"/>
<path d="M312.327 44.1903C282.216 16.774 242.186 0 198.216 0C105.106 0 29.6885 74.8839 29.6885 167.388C29.6885 192.055 34.9649 215.278 44.6031 236.387C30.8845 259.468 19.2413 284.136 10.4121 309.967C20.4372 285.969 32.8543 263.274 47.2764 241.884C110.523 147.442 212.498 80.6632 330.689 63.8892C348.663 61.3872 366.884 59.9424 385.493 59.8367L384.05 90.1426L395.94 59.8367L405.719 35.169C403.467 35.169 401.111 35.169 398.859 35.169C369.101 35.1338 340.186 38.1644 312.327 44.1903Z" fill="#E65A00"/>
</svg>
